PathFileType        4      (X/Y/Z)      Static.trc         
DataRate	CameraRate	NumFrames	NumMarkers	Units	OrigDataRate	OrigDataStartFrame	OrigNumFrames
100.0	100.0	9	33	mm	100.0	40	156
Frame#	Time	T2			T10			MANU			LASI			RASI			SACR			LTHI			LKAX			LKD1			LKD2			LKNE			LTIB			LANK			LMED			LHEE			LTOE			RTHI			RKAX			RKD1			RKD2			RKNE			RTIB			RANK			RMED			RHEE			RTOE			RHJC			LHJC			RKJC			LKJC			MASI			RAJC			LAJC			
		X1	Y1	Z1	X2	Y2	Z2	X3	Y3	Z3	X4	Y4	Z4	X5	Y5	Z5	X6	Y6	Z6	X7	Y7	Z7	X8	Y8	Z8	X9	Y9	Z9	X10	Y10	Z10	X11	Y11	Z11	X12	Y12	Z12	X13	Y13	Z13	X14	Y14	Z14	X15	Y15	Z15	X16	Y16	Z16	X17	Y17	Z17	X18	Y18	Z18	X19	Y19	Z19	X20	Y20	Z20	X21	Y21	Z21	X22	Y22	Z22	X23	Y23	Z23	X24	Y24	Z24	X25	Y25	Z25	X26	Y26	Z26	X27	Y27	Z27	X28	Y28	Z28	X29	Y29	Z29	X30	Y30	Z30	X31	Y31	Z31	X32	Y32	Z32	X33	Y33	Z33	
40	0.39	130.64141	1122.54005	-58.72661	106.67622	924.33238	-75.89601	244.14958	1050.14532	-46.33565	301.39305	736.70097	-149.32748	271.35915	740.43011	69.04875	164.93623	771.62506	-60.71371	306.23949	418.8263	-213.74995	314.78247	355.71681	-277.25027	407.30104	349.37939	-182.95652	310.13182	259.70024	-186.02767	313.8824	353.22244	-183.66504	203.18286	136.04776	-238.31161	156.61892	61.90777	-207.37034	157.51149	49.1508	-133.4817	95.00143	39.4866	-185.00082	268.67948	29.54834	-184.16505	300.05795	432.51143	113.04935	320.48822	361.67483	175.82061	409.45253	357.88358	68.14026	312.62813	266.22317	78.04242	313.33452	361.53169	77.92863	225.46499	144.56427	130.01215	174.19374	53.91336	102.68408	177.85408	57.06869	24.07329	118.67386	37.30258	79.85025	289.00469	29.66364	54.09802	216.74451	676.05805	32.16948	238.55585	673.34986	-126.42061	309.9819	361.46461	32.05102	313.44017	351.99687	-137.68349	286.3761	738.56554	-40.13936	172.40704	47.22974	64.22454	152.84308	47.52466	-171.31007	
41	0.4	130.64711	1122.54471	-58.71741	106.71634	924.32622	-75.87165	244.20173	1050.14198	-46.37112	301.43825	736.68931	-149.3316	271.4098	740.42883	69.04652	164.95207	771.62846	-60.69057	306.25935	418.81437	-213.73974	314.81592	355.71293	-277.23232	407.32011	349.36333	-182.95223	310.11897	259.67658	-186.02792	313.89817	353.21153	-183.65589	203.18441	136.04049	-238.29622	156.60894	61.90931	-207.36348	157.524	49.15125	-133.47352	94.98685	39.48811	-184.99789	268.67227	29.54659	-184.1678	300.08798	432.49356	113.05487	320.52918	361.66561	175.83242	409.48628	357.86654	68.13688	312.64601	266.20648	78.03413	313.36381	361.52691	77.93109	225.47751	144.55651	130.01731	174.21259	53.90667	102.69451	177.851	57.06676	24.08795	118.68795	37.30334	79.86368	289.01356	29.6664	54.11369	216.78615	676.05771	32.17033	238.59352	673.34198	-126.42105	310.00607	361.46191	32.05385	313.44721	351.9824	-137.67452	286.42402	738.55907	-40.14254	172.41449	47.22539	64.23734	152.84419	47.52607	-171.30259	
42	0.41	130.6533	1122.55259	-58.70974	106.74028	924.33365	-75.8475	244.25298	1050.14129	-46.40406	301.48406	736.67974	-149.33536	271.45892	740.42828	69.0456	164.9629	771.63086	-60.66505	306.2788	418.80643	-213.7291	314.84627	355.71103	-277.20822	407.34092	349.35594	-182.948	310.102	259.65024	-186.03162	313.91087	353.20133	-183.64336	203.18473	136.03485	-238.2803	156.59699	61.91085	-207.35454	157.52274	49.14544	-133.47148	94.96788	39.49006	-184.98765	268.6627	29.54304	-184.17497	300.11552	432.4797	113.05746	320.56108	361.658	175.84553	409.51888	357.85409	68.13698	312.65554	266.18439	78.02806	313.38575	361.52278	77.93272	225.49471	144.55138	130.02417	174.22755	53.89893	102.70444	177.84988	57.06552	24.10281	118.69638	37.30269	79.8761	289.02364	29.67329	54.12943	216.82753	676.05652	32.17155	238.63247	673.33424	-126.42172	310.02376	361.45942	32.05578	313.45118	351.96797	-137.66219	286.47149	738.55401	-40.14488	172.42112	47.22084	64.25002	152.8373	47.52427	-171.29728	
43	0.42	130.67226	1122.55966	-58.7104	106.75937	924.3485	-75.83168	244.29842	1050.14086	-46.42881	301.527	736.67071	-149.33427	271.50278	740.42743	69.04992	164.98251	771.62653	-60.64295	306.29388	418.79962	-213.7183	314.86693	355.70822	-277.17903	407.35597	349.35117	-182.94355	310.0852	259.62307	-186.04018	313.91803	353.18681	-183.62884	203.18532	136.03208	-238.26546	156.58874	61.91239	-207.34854	157.5073	49.13491	-133.47346	94.95255	39.4903	-184.97502	268.65252	29.53696	-184.18311	300.13971	432.46973	113.05907	320.57745	361.64655	175.86153	409.54679	357.84442	68.14562	312.65904	266.16383	78.02943	313.40021	361.51767	77.93876	225.51341	144.54902	130.03546	174.23377	53.89051	102.71372	177.85208	57.06272	24.11515	118.69781	37.29743	79.88698	289.03119	29.67985	54.14403	216.86866	676.05253	32.17773	238.67291	673.32432	-126.41768	310.03767	361.4573	32.06186	313.45163	351.94752	-137.6479	286.51489	738.54907	-40.14218	172.42506	47.21514	64.26095	152.82513	47.52021	-171.2956	
44	0.43	130.71211	1122.56181	-58.72355	106.78723	924.36161	-75.82945	244.33752	1050.13868	-46.44447	301.56687	736.66108	-149.32795	271.54057	740.42566	69.06029	165.02083	771.61167	-60.62825	306.30481	418.79134	-213.70877	314.87679	355.70292	-277.14955	407.36164	349.34311	-182.94063	310.07547	259.59884	-186.05581	313.92138	353.16544	-183.61671	203.1881	136.03265	-238.25491	156.58786	61.91316	-207.349	157.48296	49.1224	-133.47743	94.9482	39.48671	-184.96609	268.64525	29.52921	-184.19098	300.1607	432.46264	113.06103	320.57943	361.62871	175.88064	409.5676	357.83465	68.16319	312.6619	266.15008	78.03961	313.40984	361.51013	77.95196	225.53174	144.54825	130.05081	174.23197	53.88258	102.72121	177.85658	57.05597	24.12314	118.69313	37.28391	79.89411	289.03535	29.68205	54.15446	216.91116	676.04419	32.18998	238.71689	673.31028	-126.40808	310.05107	361.45457	32.07478	313.4517	351.91802	-137.63603	286.55372	738.54337	-40.13383	172.42609	47.20767	64.26855	152.81217	47.51498	-171.2982	
45	0.44	130.77084	1122.55692	-58.74886	106.83333	924.36565	-75.84072	244.37523	1050.1353	-46.45608	301.60741	736.65183	-149.32092	271.57499	740.42392	69.07359	165.08167	771.58791	-60.62129	306.31584	418.78082	-213.70319	314.8806	355.6957	-277.12694	407.36057	349.32993	-182.94213	310.0788	259.58167	-186.07921	313.92581	353.13948	-183.61219	203.19454	136.0359	-238.25249	156.59489	61.9124	-207.3564	157.45831	49.11105	-133.48259	94.9594	39.47965	-184.96596	268.64622	29.52372	-184.20018	300.17996	432.45773	113.06329	320.57535	361.60677	175.90034	409.58295	357.82348	68.18492	312.67039	266.14511	78.055	313.4198	361.50061	77.97015	225.55	144.54828	130.06604	174.22674	53.87597	102.72473	177.86115	57.04434	24.12639	118.68519	37.2613	79.89374	289.03884	29.67887	54.15651	216.95758	676.03235	32.20462	238.76768	673.29299	-126.39752	310.06762	361.45088	32.09248	313.45634	351.88261	-137.63176	286.5912	738.53787	-40.12367	172.42531	47.19841	64.27155	152.80299	47.50971	-171.30476	
46	0.45	130.83848	1122.54615	-58.78178	106.89719	924.3591	-75.86044	244.41675	1050.13236	-46.46938	301.65192	736.64433	-149.31782	271.60901	740.42357	69.08564	165.16005	771.5637	-60.61895	306.33089	418.76903	-213.70303	314.88455	355.68757	-277.11519	407.35835	349.31284	-182.94809	310.09314	259.57125	-186.10662	313.93405	353.11356	-183.61619	203.20432	136.04026	-238.25933	156.60726	61.91023	-207.36777	157.44052	49.1023	-133.48821	94.98645	39.4722	-184.97633	268.6582	29.52433	-184.21121	300.19851	432.45418	113.06591	320.57463	361.5855	175.91769	409.59647	357.81114	68.20536	312.68815	266.14825	78.07056	313.43479	361.49108	77.98924	225.56725	144.54802	130.07667	174.22144	53.87056	102.72286	177.86356	57.02925	24.12672	118.67802	37.23413	79.88398	289.04464	29.67216	54.14877	217.00659	676.021	32.21669	238.82421	673.27646	-126.39127	310.08987	361.44684	32.11104	313.46662	351.84773	-137.63598	286.63047	738.53395	-40.11609	172.42322	47.18798	64.27026	152.79994	47.50504	-171.31337	
47	0.46	130.90389	1122.53412	-58.81525	106.96831	924.34531	-75.8812	244.46209	1050.13019	-46.48546	301.69925	736.63821	-149.31837	271.6427	740.42485	69.09494	165.24191	771.5496	-60.61598	306.34995	418.75769	-213.70645	314.89242	355.67862	-277.11109	407.35997	349.2944	-182.95354	310.10954	259.56442	-186.12929	313.94538	353.0922	-183.62314	203.21485	136.04394	-238.2717	156.62029	61.90746	-207.37757	157.43139	49.09459	-133.49219	95.02359	39.46786	-184.99341	268.67704	29.53088	-184.2209	300.21514	432.45061	113.07072	320.58183	361.56909	175.9324	409.60998	357.7983	68.22223	312.71357	266.15711	78.08403	313.45547	361.48344	78.00717	225.57859	144.54472	130.0817	174.21591	53.86605	102.71668	177.8625	57.01446	24.12704	118.67415	37.21085	79.86768	289.05261	29.66518	54.13543	217.05138	676.01497	32.22444	238.87881	673.26507	-126.3899	310.11671	361.44332	32.12852	313.4796	351.82013	-137.64309	286.67098	738.53153	-40.11171	172.41911	47.17817	64.26678	152.80159	47.50041	-171.32026	
48	0.47	130.95924	1122.52642	-58.84221	107.03274	924.32934	-75.8963	244.50681	1050.12797	-46.50133	301.7447	736.63167	-149.31841	271.67282	740.4267	69.10284	165.30916	771.55092	-60.60784	306.36972	418.74851	-213.70955	314.90555	355.66902	-277.1071	407.36883	349.278	-182.9515	310.11964	259.55992	-186.13768	313.95849	353.07953	-183.62489	203.22305	136.04572	-238.28281	156.62939	61.90476	-207.37978	157.42703	49.08528	-133.49193	95.06011	39.46819	-185.00956	268.69378	29.53979	-184.2245	300.22715	432.44604	113.08011	320.59519	361.55982	175.94678	409.62284	357.78608	68.23612	312.74042	266.16789	78.09607	313.47788	361.47889	78.02394	225.57786	144.53548	130.08315	174.20841	53.86274	102.70953	177.85769	57.00463	24.12911	118.67191	37.19963	79.85116	289.05943	29.66124	54.12395	217.08381	676.01624	32.22952	238.92228	673.26025	-126.38992	310.14327	361.44098	32.14498	313.49268	351.80587	-137.64489	286.70876	738.52918	-40.10778	172.41207	47.17149	64.26373	152.80367	47.49463	-171.32121	
